# Blender 4.2.0
# www.blender.org
mtllib Espatula.mtl
o Cylinder
v 0.000000 -0.550189 -0.109376
v 0.000000 0.734744 -0.109376
v 0.021338 -0.550189 -0.107275
v 0.021338 0.734744 -0.107275
v 0.041856 -0.550189 -0.101050
v 0.041856 0.734744 -0.101050
v 0.060766 -0.550189 -0.090943
v 0.060766 0.734744 -0.090943
v 0.077341 -0.550189 -0.077341
v 0.077341 0.734744 -0.077341
v 0.090943 -0.550189 -0.060766
v 0.090943 0.734744 -0.060766
v 0.101050 -0.550189 -0.041856
v 0.101050 0.734744 -0.041856
v 0.107275 -0.550189 -0.021338
v 0.107275 0.734744 -0.021338
v 0.109376 -0.550189 0.000000
v 0.109376 0.734744 0.000000
v 0.107275 -0.550189 0.021338
v 0.107275 0.734744 0.021338
v 0.101050 -0.550189 0.041856
v 0.101050 0.734744 0.041856
v 0.090943 -0.550189 0.060766
v 0.090943 0.734744 0.060766
v 0.077341 -0.550189 0.077341
v 0.077341 0.734744 0.077341
v 0.060766 -0.550189 0.090943
v 0.060766 0.734744 0.090943
v 0.041856 -0.550189 0.101050
v 0.041856 0.734744 0.101050
v 0.021338 -0.550189 0.107275
v 0.021338 0.734744 0.107275
v 0.000000 -0.550189 0.109376
v 0.000000 0.734744 0.109376
v -0.021338 -0.550189 0.107275
v -0.021338 0.734744 0.107275
v -0.041856 -0.550189 0.101050
v -0.041856 0.734744 0.101050
v -0.060766 -0.550189 0.090943
v -0.060766 0.734744 0.090943
v -0.077341 -0.550189 0.077341
v -0.077341 0.734744 0.077341
v -0.090943 -0.550189 0.060766
v -0.090943 0.734744 0.060766
v -0.101050 -0.550189 0.041856
v -0.101050 0.734744 0.041856
v -0.107275 -0.550189 0.021338
v -0.107275 0.734744 0.021338
v -0.109376 -0.550189 0.000000
v -0.109376 0.734744 0.000000
v -0.107275 -0.550189 -0.021338
v -0.107275 0.734744 -0.021338
v -0.101050 -0.550189 -0.041856
v -0.101050 0.734744 -0.041856
v -0.090943 -0.550189 -0.060766
v -0.090943 0.734744 -0.060766
v -0.077341 -0.550189 -0.077341
v -0.077341 0.734744 -0.077341
v -0.060766 -0.550189 -0.090943
v -0.060766 0.734744 -0.090943
v -0.041856 -0.550189 -0.101050
v -0.041856 0.734744 -0.101050
v -0.021338 -0.550189 -0.107275
v -0.021338 0.734744 -0.107275
v 0.000000 -2.234252 -0.175332
v 0.034206 -2.234252 -0.171963
v 0.067097 -2.234252 -0.161986
v 0.097410 -2.234252 -0.145783
v 0.123979 -2.234252 -0.123978
v 0.145784 -2.234252 -0.097409
v 0.161986 -2.234252 -0.067097
v 0.171963 -2.234252 -0.034206
v 0.175332 -2.234252 0.000000
v 0.171963 -2.234252 0.034206
v 0.161986 -2.234252 0.067097
v 0.145784 -2.234252 0.097409
v 0.123979 -2.234252 0.123978
v 0.097410 -2.234252 0.145783
v 0.067097 -2.234252 0.161986
v 0.034206 -2.234252 0.171963
v 0.000000 -2.234252 0.175332
v -0.034205 -2.234252 0.171963
v -0.067096 -2.234252 0.161986
v -0.097409 -2.234252 0.145783
v -0.123978 -2.234252 0.123978
v -0.145783 -2.234252 0.097409
v -0.161985 -2.234252 0.067097
v -0.171963 -2.234252 0.034206
v -0.175332 -2.234252 0.000000
v -0.171963 -2.234252 -0.034206
v -0.161985 -2.234252 -0.067097
v -0.145783 -2.234252 -0.097409
v -0.123978 -2.234252 -0.123978
v -0.097409 -2.234252 -0.145783
v -0.067096 -2.234252 -0.161986
v -0.034205 -2.234252 -0.171963
v 0.000000 -0.628415 -0.175332
v 0.000000 -0.550189 -0.161950
v 0.031595 -0.550189 -0.158838
v 0.034206 -0.628415 -0.171963
v 0.061976 -0.550189 -0.149622
v 0.067097 -0.628415 -0.161986
v 0.089975 -0.550189 -0.134656
v 0.097409 -0.628415 -0.145783
v 0.114516 -0.550189 -0.114516
v 0.123978 -0.628415 -0.123978
v 0.134656 -0.550189 -0.089975
v 0.145783 -0.628415 -0.097409
v 0.149622 -0.550189 -0.061976
v 0.161986 -0.628415 -0.067097
v 0.158838 -0.550189 -0.031595
v 0.171963 -0.628415 -0.034206
v 0.161950 -0.550189 0.000000
v 0.175332 -0.628415 0.000000
v 0.158838 -0.550189 0.031595
v 0.171963 -0.628415 0.034206
v 0.149622 -0.550189 0.061976
v 0.161986 -0.628415 0.067097
v 0.134656 -0.550189 0.089975
v 0.145783 -0.628415 0.097409
v 0.114516 -0.550189 0.114516
v 0.123978 -0.628415 0.123978
v 0.089975 -0.550189 0.134656
v 0.097409 -0.628415 0.145783
v 0.061976 -0.550189 0.149622
v 0.067097 -0.628415 0.161986
v 0.031595 -0.550189 0.158838
v 0.034206 -0.628415 0.171963
v 0.000000 -0.550189 0.161950
v 0.000000 -0.628415 0.175332
v -0.031595 -0.550189 0.158838
v -0.034206 -0.628415 0.171963
v -0.061976 -0.550189 0.149622
v -0.067097 -0.628415 0.161986
v -0.089975 -0.550189 0.134656
v -0.097409 -0.628415 0.145783
v -0.114516 -0.550189 0.114516
v -0.123978 -0.628415 0.123978
v -0.134656 -0.550189 0.089975
v -0.145783 -0.628415 0.097409
v -0.149622 -0.550189 0.061976
v -0.161986 -0.628415 0.067097
v -0.158838 -0.550189 0.031595
v -0.171963 -0.628415 0.034206
v -0.161950 -0.550189 0.000000
v -0.175332 -0.628415 0.000000
v -0.158838 -0.550189 -0.031595
v -0.171963 -0.628415 -0.034206
v -0.149622 -0.550189 -0.061976
v -0.161986 -0.628415 -0.067097
v -0.134656 -0.550189 -0.089975
v -0.145783 -0.628415 -0.097409
v -0.114516 -0.550189 -0.114516
v -0.123978 -0.628415 -0.123978
v -0.089975 -0.550189 -0.134656
v -0.097409 -0.628415 -0.145783
v -0.061976 -0.550189 -0.149622
v -0.067097 -0.628415 -0.161986
v -0.031595 -0.550189 -0.158838
v -0.034206 -0.628415 -0.171963
vn 0.0980 -0.0000 -0.9952
vn 0.2903 -0.0000 -0.9569
vn 0.4714 -0.0000 -0.8819
vn 0.6344 -0.0000 -0.7730
vn 0.7730 -0.0000 -0.6344
vn 0.8819 -0.0000 -0.4714
vn 0.9569 -0.0000 -0.2903
vn 0.9952 -0.0000 -0.0980
vn 0.9952 -0.0000 0.0980
vn 0.9569 -0.0000 0.2903
vn 0.8819 -0.0000 0.4714
vn 0.7730 -0.0000 0.6344
vn 0.6344 -0.0000 0.7730
vn 0.4714 -0.0000 0.8819
vn 0.2903 -0.0000 0.9569
vn 0.0980 -0.0000 0.9952
vn -0.0980 -0.0000 0.9952
vn -0.2903 -0.0000 0.9569
vn -0.4714 -0.0000 0.8819
vn -0.6344 -0.0000 0.7730
vn -0.7730 -0.0000 0.6344
vn -0.8819 -0.0000 0.4714
vn -0.9569 -0.0000 0.2903
vn -0.9952 -0.0000 0.0980
vn -0.9952 -0.0000 -0.0980
vn -0.9569 -0.0000 -0.2903
vn -0.8819 -0.0000 -0.4714
vn -0.7730 -0.0000 -0.6344
vn -0.6344 -0.0000 -0.7730
vn -0.4714 -0.0000 -0.8819
vn -0.0000 1.0000 -0.0000
vn -0.2903 -0.0000 -0.9569
vn -0.0980 -0.0000 -0.9952
vn -0.0000 -1.0000 -0.0000
vn 0.0966 0.1678 -0.9811
vn 0.2862 0.1678 -0.9434
vn 0.4647 0.1678 -0.8694
vn 0.6254 0.1678 -0.7620
vn 0.7620 0.1678 -0.6254
vn 0.8694 0.1678 -0.4647
vn 0.9434 0.1678 -0.2862
vn 0.9811 0.1678 -0.0966
vn 0.9811 0.1678 0.0966
vn 0.9434 0.1678 0.2862
vn 0.8694 0.1678 0.4647
vn 0.7620 0.1678 0.6254
vn 0.6254 0.1678 0.7620
vn 0.4647 0.1678 0.8694
vn 0.2862 0.1678 0.9434
vn 0.0966 0.1678 0.9811
vn -0.0966 0.1678 0.9811
vn -0.2862 0.1678 0.9434
vn -0.4647 0.1678 0.8694
vn -0.6254 0.1678 0.7620
vn -0.7620 0.1678 0.6254
vn -0.8694 0.1678 0.4647
vn -0.9434 0.1678 0.2862
vn -0.9811 0.1678 0.0966
vn -0.9811 0.1678 -0.0966
vn -0.9434 0.1678 -0.2862
vn -0.8694 0.1678 -0.4647
vn -0.7620 0.1678 -0.6254
vn -0.6254 0.1678 -0.7620
vn -0.4647 0.1678 -0.8694
vn -0.2862 0.1678 -0.9434
vn -0.0966 0.1678 -0.9811
vt 1.000000 0.500000
vt 1.000000 1.000000
vt 0.968750 1.000000
vt 0.968750 0.500000
vt 0.937500 1.000000
vt 0.937500 0.500000
vt 0.906250 1.000000
vt 0.906250 0.500000
vt 0.875000 1.000000
vt 0.875000 0.500000
vt 0.843750 1.000000
vt 0.843750 0.500000
vt 0.812500 1.000000
vt 0.812500 0.500000
vt 0.781250 1.000000
vt 0.781250 0.500000
vt 0.750000 1.000000
vt 0.750000 0.500000
vt 0.718750 1.000000
vt 0.718750 0.500000
vt 0.687500 1.000000
vt 0.687500 0.500000
vt 0.656250 1.000000
vt 0.656250 0.500000
vt 0.625000 1.000000
vt 0.625000 0.500000
vt 0.593750 1.000000
vt 0.593750 0.500000
vt 0.562500 1.000000
vt 0.562500 0.500000
vt 0.531250 1.000000
vt 0.531250 0.500000
vt 0.500000 1.000000
vt 0.500000 0.500000
vt 0.468750 1.000000
vt 0.468750 0.500000
vt 0.437500 1.000000
vt 0.437500 0.500000
vt 0.406250 1.000000
vt 0.406250 0.500000
vt 0.375000 1.000000
vt 0.375000 0.500000
vt 0.343750 1.000000
vt 0.343750 0.500000
vt 0.312500 1.000000
vt 0.312500 0.500000
vt 0.281250 1.000000
vt 0.281250 0.500000
vt 0.250000 1.000000
vt 0.250000 0.500000
vt 0.218750 1.000000
vt 0.218750 0.500000
vt 0.187500 1.000000
vt 0.187500 0.500000
vt 0.156250 1.000000
vt 0.156250 0.500000
vt 0.125000 1.000000
vt 0.125000 0.500000
vt 0.093750 1.000000
vt 0.093750 0.500000
vt 0.062500 1.000000
vt 0.062500 0.500000
vt 0.296822 0.485388
vt 0.250000 0.490000
vt 0.203178 0.485388
vt 0.158156 0.471731
vt 0.116663 0.449553
vt 0.080294 0.419706
vt 0.050447 0.383337
vt 0.028269 0.341844
vt 0.014612 0.296822
vt 0.010000 0.250000
vt 0.014612 0.203178
vt 0.028269 0.158156
vt 0.050447 0.116663
vt 0.080294 0.080294
vt 0.116663 0.050447
vt 0.158156 0.028269
vt 0.203178 0.014612
vt 0.250000 0.010000
vt 0.296822 0.014612
vt 0.341844 0.028269
vt 0.383337 0.050447
vt 0.419706 0.080294
vt 0.449553 0.116663
vt 0.471731 0.158156
vt 0.485388 0.203178
vt 0.490000 0.250000
vt 0.485388 0.296822
vt 0.471731 0.341844
vt 0.449553 0.383337
vt 0.419706 0.419706
vt 0.383337 0.449553
vt 0.341844 0.471731
vt 0.031250 1.000000
vt 0.031250 0.500000
vt 0.000000 1.000000
vt 0.000000 0.500000
vt 0.906250 0.500000
vt 0.593750 0.500000
vt 0.843750 0.500000
vt 0.750000 0.490000
vt 0.796822 0.485388
vt 0.841844 0.471731
vt 0.883337 0.449553
vt 0.919706 0.419706
vt 0.949553 0.383337
vt 0.971731 0.341844
vt 0.985388 0.296822
vt 0.990000 0.250000
vt 0.985388 0.203178
vt 0.971731 0.158156
vt 0.949553 0.116663
vt 0.919706 0.080294
vt 0.883337 0.050447
vt 0.841844 0.028269
vt 0.796822 0.014612
vt 0.750000 0.010000
vt 0.703178 0.014612
vt 0.658156 0.028269
vt 0.616663 0.050447
vt 0.580294 0.080294
vt 0.550447 0.116663
vt 0.528269 0.158156
vt 0.514612 0.203178
vt 0.510000 0.250000
vt 0.514612 0.296822
vt 0.528269 0.341844
vt 0.550447 0.383337
vt 0.580294 0.419706
vt 0.616663 0.449553
vt 0.658156 0.471731
vt 0.703178 0.485388
vt 0.468750 0.500000
vt 0.875000 0.500000
vt 0.937500 0.500000
vt 0.375000 0.500000
vt 0.781250 0.500000
vt 0.968750 0.500000
s 0
f 1/1/1 2/2/1 4/3/1 3/4/1
f 3/4/2 4/3/2 6/5/2 5/6/2
f 5/6/3 6/5/3 8/7/3 7/8/3
f 7/8/4 8/7/4 10/9/4 9/10/4
f 9/10/5 10/9/5 12/11/5 11/12/5
f 11/12/6 12/11/6 14/13/6 13/14/6
f 13/14/7 14/13/7 16/15/7 15/16/7
f 15/16/8 16/15/8 18/17/8 17/18/8
f 17/18/9 18/17/9 20/19/9 19/20/9
f 19/20/10 20/19/10 22/21/10 21/22/10
f 21/22/11 22/21/11 24/23/11 23/24/11
f 23/24/12 24/23/12 26/25/12 25/26/12
f 25/26/13 26/25/13 28/27/13 27/28/13
f 27/28/14 28/27/14 30/29/14 29/30/14
f 29/30/15 30/29/15 32/31/15 31/32/15
f 31/32/16 32/31/16 34/33/16 33/34/16
f 33/34/17 34/33/17 36/35/17 35/36/17
f 35/36/18 36/35/18 38/37/18 37/38/18
f 37/38/19 38/37/19 40/39/19 39/40/19
f 39/40/20 40/39/20 42/41/20 41/42/20
f 41/42/21 42/41/21 44/43/21 43/44/21
f 43/44/22 44/43/22 46/45/22 45/46/22
f 45/46/23 46/45/23 48/47/23 47/48/23
f 47/48/24 48/47/24 50/49/24 49/50/24
f 49/50/25 50/49/25 52/51/25 51/52/25
f 51/52/26 52/51/26 54/53/26 53/54/26
f 53/54/27 54/53/27 56/55/27 55/56/27
f 55/56/28 56/55/28 58/57/28 57/58/28
f 57/58/29 58/57/29 60/59/29 59/60/29
f 59/60/30 60/59/30 62/61/30 61/62/30
f 4/63/31 2/64/31 64/65/31 62/66/31 60/67/31 58/68/31 56/69/31 54/70/31 52/71/31 50/72/31 48/73/31 46/74/31 44/75/31 42/76/31 40/77/31 38/78/31 36/79/31 34/80/31 32/81/31 30/82/31 28/83/31 26/84/31 24/85/31 22/86/31 20/87/31 18/88/31 16/89/31 14/90/31 12/91/31 10/92/31 8/93/31 6/94/31
f 61/62/32 62/61/32 64/95/32 63/96/32
f 63/96/33 64/95/33 2/97/33 1/98/33
f 102/6/3 104/99/3 68/8/3 67/6/3
f 130/34/17 132/36/17 82/36/17 81/34/17
f 120/24/12 122/26/12 77/26/12 76/24/12
f 138/42/21 140/44/21 86/44/21 85/42/21
f 156/60/30 158/62/30 95/62/30 94/60/30
f 112/16/8 114/18/8 73/18/8 72/16/8
f 128/32/16 130/34/16 81/34/16 80/32/16
f 148/52/26 150/54/26 91/54/26 90/52/26
f 104/8/4 106/10/4 69/10/4 68/8/4
f 122/26/13 124/100/13 78/28/13 77/26/13
f 140/44/22 142/46/22 87/46/22 86/44/22
f 158/62/32 160/96/32 96/96/32 95/62/32
f 114/18/9 116/20/9 74/20/9 73/18/9
f 132/36/18 134/38/18 83/38/18 82/36/18
f 150/54/27 152/56/27 92/56/27 91/54/27
f 106/10/5 108/101/5 70/12/5 69/10/5
f 124/28/14 126/30/14 79/30/14 78/28/14
f 142/46/23 144/48/23 88/48/23 87/46/23
f 116/20/10 118/22/10 75/22/10 74/20/10
f 134/38/19 136/40/19 84/40/19 83/38/19
f 152/56/28 154/58/28 93/58/28 92/56/28
f 108/12/6 110/14/6 71/14/6 70/12/6
f 126/30/15 128/32/15 80/32/15 79/30/15
f 144/48/24 146/50/24 89/50/24 88/48/24
f 160/96/33 97/98/33 65/98/33 96/96/33
f 1/1/31 3/4/31 99/4/31 98/1/31
f 118/22/11 120/24/11 76/24/11 75/22/11
f 136/40/20 138/42/20 85/42/20 84/40/20
f 154/58/29 156/60/29 94/60/29 93/58/29
f 110/14/7 112/16/7 72/16/7 71/14/7
f 31/32/31 33/34/31 129/34/31 127/32/31
f 146/50/25 148/52/25 90/52/25 89/50/25
f 65/102/34 66/103/34 67/104/34 68/105/34 69/106/34 70/107/34 71/108/34 72/109/34 73/110/34 74/111/34 75/112/34 76/113/34 77/114/34 78/115/34 79/116/34 80/117/34 81/118/34 82/119/34 83/120/34 84/121/34 85/122/34 86/123/34 87/124/34 88/125/34 89/126/34 90/127/34 91/128/34 92/129/34 93/130/34 94/131/34 95/132/34 96/133/34
f 5/6/31 7/8/31 103/8/31 101/6/31
f 59/60/31 61/62/31 157/62/31 155/60/31
f 33/34/31 35/36/31 131/36/31 129/34/31
f 7/8/31 9/10/31 105/10/31 103/8/31
f 61/62/31 63/96/31 159/96/31 157/62/31
f 35/36/31 37/38/31 133/38/31 131/134/31
f 9/10/31 11/12/31 107/12/31 105/135/31
f 100/4/2 102/136/2 67/6/2 66/4/2
f 37/38/31 39/40/31 135/40/31 133/38/31
f 11/12/31 13/14/31 109/14/31 107/12/31
f 39/40/31 41/42/31 137/42/31 135/40/31
f 13/14/31 15/16/31 111/16/31 109/14/31
f 41/42/31 43/44/31 139/44/31 137/137/31
f 15/16/31 17/18/31 113/18/31 111/138/31
f 43/44/31 45/46/31 141/46/31 139/44/31
f 17/18/31 19/20/31 115/20/31 113/18/31
f 45/46/31 47/48/31 143/48/31 141/46/31
f 19/20/31 21/22/31 117/22/31 115/20/31
f 47/48/31 49/50/31 145/50/31 143/48/31
f 21/22/31 23/24/31 119/24/31 117/22/31
f 49/50/31 51/52/31 147/52/31 145/50/31
f 23/24/31 25/26/31 121/26/31 119/24/31
f 51/52/31 53/54/31 149/54/31 147/52/31
f 25/26/31 27/28/31 123/28/31 121/26/31
f 53/54/31 55/56/31 151/56/31 149/54/31
f 27/28/31 29/30/31 125/30/31 123/28/31
f 63/96/31 1/98/31 98/98/31 159/96/31
f 55/56/31 57/58/31 153/58/31 151/56/31
f 29/30/31 31/32/31 127/32/31 125/30/31
f 3/4/31 5/6/31 101/6/31 99/139/31
f 57/58/31 59/60/31 155/60/31 153/58/31
f 98/1/35 99/4/35 100/139/35 97/1/35
f 99/139/36 101/6/36 102/136/36 100/4/36
f 101/6/37 103/8/37 104/99/37 102/6/37
f 103/8/38 105/10/38 106/10/38 104/8/38
f 105/135/39 107/12/39 108/101/39 106/10/39
f 107/12/40 109/14/40 110/14/40 108/12/40
f 109/14/41 111/16/41 112/16/41 110/14/41
f 111/138/42 113/18/42 114/18/42 112/16/42
f 113/18/43 115/20/43 116/20/43 114/18/43
f 115/20/44 117/22/44 118/22/44 116/20/44
f 117/22/45 119/24/45 120/24/45 118/22/45
f 119/24/46 121/26/46 122/26/46 120/24/46
f 121/26/47 123/28/47 124/100/47 122/26/47
f 123/28/48 125/30/48 126/30/48 124/28/48
f 125/30/49 127/32/49 128/32/49 126/30/49
f 127/32/50 129/34/50 130/34/50 128/32/50
f 129/34/51 131/36/51 132/36/51 130/34/51
f 131/134/52 133/38/52 134/38/52 132/36/52
f 133/38/53 135/40/53 136/40/53 134/38/53
f 135/40/54 137/42/54 138/42/54 136/40/54
f 137/137/55 139/44/55 140/44/55 138/42/55
f 139/44/56 141/46/56 142/46/56 140/44/56
f 141/46/57 143/48/57 144/48/57 142/46/57
f 143/48/58 145/50/58 146/50/58 144/48/58
f 145/50/59 147/52/59 148/52/59 146/50/59
f 147/52/60 149/54/60 150/54/60 148/52/60
f 149/54/61 151/56/61 152/56/61 150/54/61
f 151/56/62 153/58/62 154/58/62 152/56/62
f 153/58/63 155/60/63 156/60/63 154/58/63
f 155/60/64 157/62/64 158/62/64 156/60/64
f 157/62/65 159/96/65 160/96/65 158/62/65
f 159/96/66 98/98/66 97/98/66 160/96/66
f 97/1/1 100/139/1 66/4/1 65/1/1
o Cube
v -0.030087 0.730523 0.108403
v -0.081725 0.947330 0.146556
v -0.029053 0.730523 -0.108403
v -0.081082 0.947330 -0.146556
v 0.024603 0.730523 0.108403
v -0.027294 0.947330 0.146556
v 0.025644 0.730523 -0.108403
v -0.026650 0.947330 -0.146556
v -0.103082 1.087122 0.343764
v -0.102471 1.087122 -0.343764
v -0.048040 1.087122 -0.343764
v -0.048651 1.087122 0.343764
v -0.122898 1.289581 0.458582
v -0.122676 1.289581 -0.458582
v -0.068245 1.289581 -0.458582
v -0.068467 1.289581 0.458582
v -0.131179 1.549884 0.517502
v -0.131179 1.549884 -0.517502
v -0.076748 1.549884 -0.517502
v -0.076748 1.549884 0.517502
v -0.067684 2.210284 0.517502
v -0.066946 2.210284 -0.517502
v -0.012450 2.210284 -0.517502
v -0.013192 2.210284 0.517502
v -0.028826 2.287410 0.482162
v -0.027954 2.287410 -0.482162
v -0.018004 2.287410 -0.482162
v -0.018876 2.287410 0.482162
v -0.066066 0.730523 -0.084314
v -0.092138 0.730523 -0.060224
v -0.102122 0.730523 -0.036134
v -0.108924 0.730523 -0.012045
v -0.109439 0.730523 0.012045
v -0.103362 0.730523 0.036134
v -0.093377 0.730523 0.060224
v -0.067308 0.730523 0.084314
v -0.081305 0.947330 0.113988
v -0.081179 0.947330 0.081420
v -0.081267 0.947330 0.048852
v -0.081012 0.947330 0.016284
v -0.080415 0.947330 -0.016284
v -0.080494 0.947330 -0.048852
v -0.080408 0.947330 -0.081420
v -0.080660 0.947330 -0.113988
v 0.062152 0.730523 0.084314
v 0.086919 0.730523 0.060224
v 0.100311 0.730523 0.036134
v 0.106100 0.730523 0.012045
v 0.106625 0.730523 -0.012045
v 0.101575 0.730523 -0.036134
v 0.088178 0.730523 -0.060224
v 0.063404 0.730523 -0.084314
v -0.026227 0.947330 -0.113988
v -0.025973 0.947330 -0.081420
v -0.026060 0.947330 -0.048852
v -0.025981 0.947330 -0.016284
v -0.026581 0.947330 0.016284
v -0.026836 0.947330 0.048852
v -0.026748 0.947330 0.081420
v -0.026874 0.947330 0.113988
v -0.103590 1.087122 0.267372
v -0.103730 1.087122 0.190980
v -0.103325 1.087122 0.114588
v -0.103360 1.087122 0.038196
v -0.102806 1.087122 -0.038196
v -0.102863 1.087122 -0.114588
v -0.103274 1.087122 -0.190980
v -0.102865 1.087122 -0.267372
v -0.048434 1.087122 -0.267372
v -0.048843 1.087122 -0.190980
v -0.048432 1.087122 -0.114588
v -0.048375 1.087122 -0.038196
v -0.048929 1.087122 0.038196
v -0.048894 1.087122 0.114588
v -0.049298 1.087122 0.190980
v -0.049159 1.087122 0.267372
v -0.123195 1.289581 0.356675
v -0.123444 1.289581 0.254768
v -0.123605 1.289581 0.152861
v -0.123450 1.289581 0.050953
v -0.123168 1.289581 -0.050954
v -0.123372 1.289581 -0.152861
v -0.123071 1.289581 -0.254768
v -0.122956 1.289581 -0.356675
v -0.068524 1.289581 -0.356675
v -0.068640 1.289581 -0.254768
v -0.068941 1.289581 -0.152861
v -0.068737 1.289581 -0.050953
v -0.069018 1.289581 0.050954
v -0.069174 1.289581 0.152861
v -0.069012 1.289581 0.254768
v -0.068764 1.289581 0.356675
v -0.029809 2.287410 0.375015
v -0.030300 2.287410 0.267868
v -0.030617 2.287410 0.160721
v -0.029898 2.287410 0.053574
v -0.028859 2.287410 -0.053574
v -0.029754 2.287410 -0.160721
v -0.028934 2.287410 -0.267868
v -0.028940 2.287410 -0.375015
v -0.018991 2.287410 -0.375015
v -0.018985 2.287410 -0.267868
v -0.019806 2.287410 -0.160721
v -0.018909 2.287410 -0.053574
v -0.019949 2.287410 0.053574
v -0.020669 2.287410 0.160721
v -0.020352 2.287410 0.267868
v -0.019860 2.287410 0.375015
v -0.069778 2.210284 0.376516
v -0.075201 2.184299 0.402501
v -0.069778 2.210284 0.428486
v -0.061547 2.226892 0.396582
v -0.020744 2.184299 0.402501
v -0.015296 2.210284 0.376516
v -0.016645 2.226892 0.396582
v -0.015296 2.210284 0.428486
v -0.131179 1.578287 0.402501
v -0.131179 1.549884 0.374099
v -0.131179 1.521912 0.397577
v -0.131179 1.549884 0.430904
v -0.076748 1.549884 0.374099
v -0.076748 1.578287 0.402501
v -0.076748 1.549884 0.430904
v -0.076748 1.521912 0.397577
v -0.075634 2.183826 0.287501
v -0.070134 2.210284 0.313959
v -0.061660 2.227413 0.283140
v -0.070134 2.210284 0.261043
v -0.015653 2.210284 0.313959
v -0.021179 2.183826 0.287501
v -0.015653 2.210284 0.261043
v -0.017059 2.227413 0.283140
v -0.131179 1.549884 0.317617
v -0.131179 1.580000 0.287501
v -0.131179 1.549884 0.257385
v -0.131179 1.520003 0.283743
v -0.076748 1.580000 0.287501
v -0.076748 1.549884 0.317617
v -0.076748 1.520003 0.283743
v -0.076748 1.549884 0.257385
v -0.131179 1.581105 0.172501
v -0.131179 1.549884 0.141279
v -0.131179 1.518751 0.170152
v -0.131179 1.549884 0.203722
v -0.076748 1.549884 0.141279
v -0.076748 1.581105 0.172501
v -0.076748 1.549884 0.203722
v -0.076748 1.518751 0.170152
v -0.131179 1.549884 0.085737
v -0.131179 1.578121 0.057500
v -0.131179 1.549884 0.029263
v -0.131179 1.521656 0.056790
v -0.076748 1.578121 0.057500
v -0.076748 1.549884 0.085737
v -0.076748 1.521656 0.056790
v -0.076748 1.549884 0.029263
v -0.070376 2.210284 0.147300
v -0.075604 2.185083 0.172501
v -0.070376 2.210284 0.197701
v -0.062240 2.226743 0.169987
v -0.021149 2.185083 0.172501
v -0.015897 2.210284 0.147300
v -0.017254 2.226743 0.169987
v -0.015897 2.210284 0.197701
v -0.074661 2.186846 0.057500
v -0.069765 2.210284 0.080938
v -0.062141 2.225660 0.056717
v -0.069765 2.210284 0.034062
v -0.015282 2.210284 0.080938
v -0.020201 2.186846 0.057500
v -0.015282 2.210284 0.034062
v -0.016527 2.225660 0.056717
v -0.131179 1.549884 -0.144751
v -0.131179 1.577633 -0.172501
v -0.131179 1.549884 -0.200250
v -0.131179 1.522213 -0.170413
v -0.076748 1.577633 -0.172501
v -0.076748 1.549884 -0.144751
v -0.076748 1.522213 -0.170413
v -0.076748 1.549884 -0.200250
v -0.131179 1.573968 -0.057500
v -0.131179 1.549884 -0.081584
v -0.131179 1.525807 -0.056895
v -0.131179 1.549884 -0.033416
v -0.076748 1.549884 -0.081584
v -0.076748 1.573968 -0.057500
v -0.076748 1.549884 -0.033416
v -0.076748 1.525807 -0.056895
v -0.068870 2.210284 -0.082992
v -0.074241 2.184792 -0.057500
v -0.068870 2.210284 -0.032008
v -0.060549 2.227007 -0.056649
v -0.019779 2.184792 -0.057500
v -0.014384 2.210284 -0.082992
v -0.015709 2.227007 -0.056649
v -0.014384 2.210284 -0.032008
v -0.074532 2.187004 -0.172501
v -0.069663 2.210284 -0.149221
v -0.062120 2.225488 -0.170178
v -0.069663 2.210284 -0.195780
v -0.015180 2.210284 -0.149221
v -0.020071 2.187004 -0.172501
v -0.015180 2.210284 -0.195780
v -0.016408 2.225488 -0.170178
v -0.069013 2.210284 -0.310025
v -0.073756 2.187759 -0.287501
v -0.069013 2.210284 -0.264977
v -0.061756 2.224866 -0.283789
v -0.019292 2.187759 -0.287501
v -0.014527 2.210284 -0.310025
v -0.015682 2.224866 -0.283789
v -0.014527 2.210284 -0.264977
v -0.131179 1.574528 -0.287501
v -0.131179 1.549884 -0.312145
v -0.131179 1.525433 -0.284426
v -0.131179 1.549884 -0.262857
v -0.076748 1.549884 -0.312145
v -0.076748 1.574528 -0.287501
v -0.076748 1.549884 -0.262857
v -0.076748 1.525433 -0.284426
v -0.131179 1.549884 -0.377574
v -0.131179 1.574811 -0.402501
v -0.131179 1.549884 -0.427428
v -0.131179 1.525335 -0.398179
v -0.076748 1.574811 -0.402501
v -0.076748 1.549884 -0.377574
v -0.076748 1.525335 -0.398179
v -0.076748 1.549884 -0.427428
v -0.074078 2.186445 -0.402501
v -0.069063 2.210284 -0.378663
v -0.061484 2.225520 -0.397071
v -0.069063 2.210284 -0.426339
v -0.014577 2.210284 -0.378663
v -0.019615 2.186445 -0.402501
v -0.014577 2.210284 -0.426339
v -0.015787 2.225520 -0.397071
vn -0.8214 -0.2092 -0.5305
vn -0.0000 -0.1733 -0.9849
vn 0.8172 0.1799 0.5476
vn -0.0000 -0.1733 0.9849
vn -0.0000 -1.0000 -0.0000
vn -0.0000 -0.8158 -0.5783
vn 0.9949 0.1009 0.0038
vn 0.9881 0.1538 -0.0003
vn -0.9879 -0.1552 0.0008
vn -0.0000 -0.8158 0.5783
vn -0.0000 -0.2208 0.9753
vn -0.9951 -0.0991 0.0045
vn -0.0000 -0.4933 0.8699
vn -0.0000 -0.4933 -0.8699
vn -0.0000 -0.0000 1.0000
vn -0.0000 -0.2208 -0.9753
vn 1.0000 -0.0000 -0.0000
vn 0.9983 0.0573 -0.0044
vn -0.0000 -0.0000 -1.0000
vn -0.0000 1.0000 -0.0000
vn -0.8957 0.4447 0.0037
vn -0.0000 0.4166 0.9091
vn -0.0000 0.4166 -0.9091
vn -1.0000 -0.0000 -0.0000
vn -0.8958 0.4444 -0.0091
vn 0.9984 0.0557 -0.0086
vn 0.9983 0.0584 -0.0070
vn 0.9981 0.0616 0.0035
vn 0.9982 0.0604 0.0064
vn 0.9982 0.0579 -0.0131
vn 0.9983 0.0578 0.0039
vn -0.8790 0.4764 -0.0204
vn -0.8961 0.4439 0.0080
vn -0.8962 0.4436 0.0025
vn -0.9949 -0.1009 -0.0038
vn -0.9951 -0.0991 -0.0029
vn -0.9951 -0.0989 0.0006
vn -0.9950 -0.1002 0.0015
vn -0.9950 -0.0994 -0.0047
vn -0.9951 -0.0991 -0.0007
vn -0.9952 -0.0980 -0.0014
vn -0.9952 -0.0975 0.0022
vn -0.9881 -0.1538 0.0002
vn -0.9870 -0.1605 -0.0014
vn -0.9874 -0.1579 0.0029
vn -0.9875 -0.1577 0.0012
vn -0.9874 -0.1580 -0.0104
vn -0.9877 -0.1562 -0.0020
vn -0.9878 -0.1558 -0.0029
vn -0.9874 -0.1585 0.0001
vn 0.9879 0.1552 -0.0008
vn 0.9874 0.1585 -0.0001
vn 0.9878 0.1558 0.0029
vn 0.9877 0.1563 0.0020
vn 0.9874 0.1580 0.0104
vn 0.9875 0.1577 -0.0012
vn 0.9874 0.1579 -0.0029
vn 0.9870 0.1605 0.0014
vn 0.9951 0.0991 -0.0045
vn 0.9952 0.0975 -0.0022
vn 0.9952 0.0980 0.0014
vn 0.9951 0.0991 0.0007
vn 0.9950 0.0994 0.0047
vn 0.9950 0.1002 -0.0015
vn 0.9951 0.0989 -0.0006
vn 0.9951 0.0991 0.0029
vn 0.8156 0.1810 -0.5496
vn 0.8544 0.3572 -0.3774
vn 0.8620 0.4648 -0.2025
vn 0.8562 0.5108 -0.0775
vn 0.8529 0.5218 0.0169
vn 0.8558 0.5092 0.0913
vn 0.8627 0.4633 0.2026
vn 0.8556 0.3558 0.3759
vn -0.8204 -0.2075 0.5328
vn -0.9080 -0.0525 0.4158
vn -0.9825 0.0640 0.1747
vn -0.9886 0.1112 0.1016
vn -0.9913 0.1302 -0.0194
vn -0.9871 0.1095 -0.1171
vn -0.9827 0.0619 -0.1747
vn -0.9086 -0.0546 -0.4141
vn 0.9988 0.0435 -0.0226
vn -0.8950 0.4461 -0.0065
vn -0.9523 0.3053 -0.0000
vn 0.9954 -0.0958 -0.0000
vn -0.0000 -0.7071 -0.7071
vn -0.8794 0.4756 0.0207
vn -0.0000 0.7071 -0.7071
vn 0.9956 -0.0941 -0.0000
vn -0.0000 -0.7071 0.7071
vn -0.0000 0.7071 0.7071
vn -0.8963 0.4434 -0.0062
vn -0.9522 0.3055 -0.0000
vn 0.9957 -0.0931 -0.0000
vn -0.9517 0.3070 -0.0000
vn 0.9956 -0.0942 -0.0000
vn -0.9512 0.3085 -0.0000
vn 0.9954 -0.0960 -0.0000
vn -0.9517 0.3069 -0.0000
vn 0.9955 -0.0948 -0.0000
vn -0.9515 0.3077 -0.0000
vn 0.9953 -0.0968 -0.0000
vn -0.8954 0.4453 0.0005
vn 0.9979 0.0612 0.0233
vn -0.9518 0.3068 -0.0000
vn 0.9952 -0.0975 -0.0000
vn 0.9994 0.0342 -0.0015
vn 0.9994 0.0341 -0.0056
vn 0.9994 0.0334 -0.0009
vn 0.9995 0.0331 0.0012
vn 0.9994 0.0336 0.0020
vn 0.9994 0.0336 -0.0015
vn 0.9994 0.0341 0.0019
vn 0.9994 0.0347 0.0005
vn 0.9994 0.0347 0.0051
vn -0.9994 -0.0347 -0.0051
vn -0.9994 -0.0347 -0.0005
vn -0.9994 -0.0341 -0.0019
vn -0.9994 -0.0336 0.0015
vn -0.9994 -0.0336 -0.0020
vn -0.9995 -0.0331 -0.0012
vn -0.9994 -0.0334 0.0009
vn -0.9994 -0.0342 0.0015
vn -0.9994 -0.0341 0.0056
vn -0.8868 0.4621 -0.0056
vn -0.8860 0.4637 -0.0077
vn -0.8862 0.4633 0.0067
vn -0.8853 0.4649 -0.0061
vn -0.8853 0.4650 0.0003
vn -0.8868 0.4619 -0.0135
vn -0.8863 0.4631 0.0022
vn -0.8855 0.4647 0.0035
vn -0.8874 0.4607 0.0135
vn -0.9957 0.0926 -0.0043
vn -0.9958 0.0916 0.0008
vn -0.9950 0.0939 0.0335
vn -0.9957 0.0929 -0.0043
vn -0.9950 0.0949 -0.0313
vn 0.9950 -0.0939 -0.0337
vn 0.9958 -0.0917 -0.0008
vn 0.9957 -0.0927 0.0043
vn 0.9957 -0.0929 0.0043
vn 0.9950 -0.0950 0.0314
vn 0.9829 -0.1828 -0.0232
vn 0.9789 -0.2043 -0.0026
vn 0.9784 -0.2066 0.0095
vn 0.9785 -0.2062 0.0068
vn 0.9825 -0.1847 0.0229
vn 0.9983 0.0591 -0.0010
vn 0.9976 0.0693 -0.0092
vn 0.9982 0.0608 0.0004
vn 0.9981 0.0603 0.0083
vn 0.9983 0.0577 0.0107
vn 0.9982 0.0602 -0.0043
vn 0.9984 0.0558 0.0090
vn 0.9984 0.0564 0.0024
vn 0.9987 0.0502 0.0105
vn -0.9827 0.1839 -0.0228
vn -0.9787 0.2053 -0.0067
vn -0.9786 0.2057 -0.0094
vn -0.9791 0.2034 0.0026
vn -0.9830 0.1820 0.0231
vt 0.375000 0.222222
vt 0.625000 0.222222
vt 0.625000 0.250000
vt 0.375000 0.250000
vt 0.625000 0.500000
vt 0.375000 0.500000
vt 0.375000 0.722222
vt 0.625000 0.722222
vt 0.625000 0.750000
vt 0.375000 0.750000
vt 0.625000 1.000000
vt 0.375000 1.000000
vt 0.125000 0.722222
vt 0.125000 0.750000
vt 0.625000 0.527778
vt 0.625000 0.027778
vt 0.625000 0.000000
vt 0.625000 0.555556
vt 0.625000 0.533799
vt 0.625000 0.549603
vt 0.625000 0.550115
vt 0.625000 0.533536
vt 0.625000 0.521757
vt 0.625000 0.729083
vt 0.875000 0.722222
vt 0.875000 0.750000
vt 0.625000 0.055556
vt 0.625000 0.049165
vt 0.625000 0.034054
vt 0.625000 0.533536
vt 0.625000 0.550115
vt 0.625000 0.199885
vt 0.625000 0.216464
vt 0.625000 0.194444
vt 0.625000 0.588956
vt 0.625000 0.604954
vt 0.625000 0.145046
vt 0.625000 0.161044
vt 0.625000 0.611111
vt 0.625000 0.138889
vt 0.625000 0.644550
vt 0.625000 0.660580
vt 0.625000 0.089420
vt 0.625000 0.105450
vt 0.625000 0.666667
vt 0.625000 0.083333
vt 0.625000 0.083333
vt 0.625000 0.715362
vt 0.625000 0.701719
vt 0.625000 0.048281
vt 0.625000 0.034638
vt 0.625000 0.694444
vt 0.625000 0.055556
vt 0.875000 0.500000
vt 0.875000 0.527778
vt 0.875000 0.555556
vt 0.875000 0.583333
vt 0.625000 0.583333
vt 0.875000 0.611111
vt 0.875000 0.638889
vt 0.625000 0.638889
vt 0.875000 0.666667
vt 0.875000 0.694444
vt 0.625000 0.200397
vt 0.625000 0.216201
vt 0.625000 0.132731
vt 0.625000 0.116772
vt 0.625000 0.111111
vt 0.625000 0.090875
vt 0.625000 0.104291
vt 0.625000 0.075792
vt 0.625000 0.062830
vt 0.625000 0.055556
vt 0.625000 0.715946
vt 0.625000 0.700835
vt 0.625000 0.616929
vt 0.625000 0.632068
vt 0.625000 0.688054
vt 0.625000 0.672754
vt 0.625000 0.633228
vt 0.625000 0.617269
vt 0.625000 0.577710
vt 0.625000 0.560996
vt 0.625000 0.227980
vt 0.625000 0.166667
vt 0.625000 0.173369
vt 0.625000 0.188492
vt 0.625000 0.166667
vt 0.625000 0.133071
vt 0.625000 0.117932
vt 0.625000 0.111111
vt 0.625000 0.077246
vt 0.625000 0.061946
vt 0.625000 0.055556
vt 0.625000 0.020917
vt 0.625000 0.722222
vt 0.625000 0.674208
vt 0.625000 0.687170
vt 0.625000 0.645710
vt 0.625000 0.659125
vt 0.625000 0.561508
vt 0.625000 0.576631
vt 0.125000 0.500000
vt 0.375000 0.527778
vt 0.125000 0.527778
vt 0.375000 0.555556
vt 0.125000 0.555556
vt 0.375000 0.583333
vt 0.125000 0.583333
vt 0.375000 0.611111
vt 0.125000 0.611111
vt 0.375000 0.638889
vt 0.125000 0.638889
vt 0.375000 0.666667
vt 0.125000 0.666667
vt 0.375000 0.694444
vt 0.125000 0.694444
vt 0.375000 0.000000
vt 0.375000 0.027778
vt 0.375000 0.055556
vt 0.375000 0.083333
vt 0.375000 0.111111
vt 0.375000 0.138889
vt 0.375000 0.166667
vt 0.375000 0.194444
vt 0.625000 0.715946
vt 0.625000 0.728499
vt 0.625000 0.590036
vt 0.625000 0.605294
vt 0.625000 0.075792
vt 0.625000 0.222222
vt 0.625000 0.189004
vt 0.625000 0.172290
vt 0.625000 0.021501
vt 0.625000 0.027778
vt 0.625000 0.688054
vt 0.625000 0.159964
vt 0.625000 0.144706
vt 0.625000 0.577710
vt 0.625000 0.521757
vt 0.625000 0.189004
vt 0.625000 0.222222
vt 0.625000 0.199885
vt 0.625000 0.522020
vt 0.625000 0.228243
vt 0.625000 0.522020
vt 0.625000 0.694445
vt 0.625000 0.527778
vt 0.625000 0.617269
vt 0.625000 0.227980
s 0
f 189/140/67 204/141/67 164/142/67 163/143/67
f 163/143/68 164/142/68 168/144/68 167/145/68
f 205/146/69 220/147/69 166/148/69 165/149/69
f 165/149/70 166/148/70 162/150/70 161/151/70
f 196/152/71 205/146/71 165/149/71 161/153/71
f 168/144/72 164/142/72 170/142/72 171/144/72
f 229/154/73 171/144/73 175/144/73 245/154/73
f 213/154/74 168/144/74 171/144/74 229/154/74
f 197/155/75 162/156/75 169/156/75 221/155/75
f 162/150/76 166/148/76 172/148/76 169/150/76
f 173/150/77 176/148/77 180/148/77 177/150/77
f 221/155/78 169/156/78 173/156/78 237/155/78
f 169/150/79 172/148/79 176/148/79 173/150/79
f 171/144/80 170/142/80 174/142/80 175/144/80
f 177/150/81 180/148/81 184/148/81 181/150/81
f 175/144/82 174/142/82 178/142/82 179/144/82
f 380/157/83 387/154/83 386/158/83 377/159/83
f 370/160/84 393/161/84 396/154/84 261/154/84
f 179/144/85 178/142/85 182/142/85 183/144/85
f 387/154/83 179/144/83 388/162/83
f 180/148/83 284/147/83 283/163/83
f 268/147/86 253/164/86 185/165/86 188/148/86
f 287/166/87 286/167/87 269/168/87 272/155/87
f 181/150/88 184/148/88 188/148/88 185/150/88
f 183/144/89 182/142/89 186/142/89 187/144/89
f 393/169/71 370/170/71 365/171/71 390/172/71
f 369/157/85 378/157/85 373/173/85 366/173/85
f 361/174/71 354/175/71 349/176/71 358/177/71
f 353/178/85 346/178/85 341/179/85 350/179/85
f 329/180/71 322/181/71 317/182/71 326/183/71
f 321/184/85 306/184/85 301/185/85 318/186/85
f 281/187/86 298/188/86 293/189/86 278/190/86
f 297/191/81 290/191/81 285/192/81 294/166/81
f 187/144/86 186/193/86 260/194/86 261/154/86
f 261/154/86 260/194/86 259/195/86 262/157/86
f 262/157/86 259/195/86 258/196/86 263/197/86
f 263/197/86 258/196/86 257/198/86 264/178/86
f 264/178/86 257/198/86 256/199/86 265/200/86
f 265/200/86 256/199/86 255/201/86 266/184/86
f 266/184/86 255/201/86 254/202/86 267/191/86
f 267/191/86 254/202/86 253/164/86 268/147/86
f 384/141/90 375/173/90 374/203/90 381/204/90
f 352/179/91 351/205/91 328/206/91 327/207/91
f 312/207/90 303/186/90 302/208/90 309/209/90
f 301/186/90 304/210/90 295/211/90 294/212/90
f 274/213/92 289/214/92 292/191/92 267/191/92
f 315/200/83 348/178/83 347/215/83 316/216/83
f 291/217/93 324/218/93 323/184/93 266/184/93
f 322/181/94 329/180/94 332/200/94 265/200/94
f 331/219/95 356/220/95 355/178/95 264/178/95
f 354/175/96 361/174/96 364/197/96 263/197/96
f 363/221/97 372/222/97 371/157/97 262/157/97
f 182/142/98 392/223/98 391/141/98
f 375/173/90 336/224/90 335/225/90 376/226/90
f 359/227/99 358/177/99 349/176/99 352/179/99
f 341/179/90 344/228/90 311/229/90 310/230/90
f 320/186/100 319/231/100 288/232/100 287/233/100
f 296/166/90 279/155/90 278/190/90 293/189/90
f 279/155/90 177/156/90 280/234/90
f 180/148/83 283/163/83 282/235/83
f 284/235/83 299/191/83 298/188/83 281/187/83
f 299/191/83 308/184/83 307/236/83 300/237/83
f 308/184/83 315/200/83 314/238/83 305/239/83
f 339/197/83 380/157/83 379/240/83 340/241/83
f 170/142/101 228/141/101 244/141/101 174/142/101
f 228/141/102 227/173/102 243/173/102 244/141/102
f 227/173/103 226/224/103 242/224/103 243/173/103
f 226/224/104 225/179/104 241/179/104 242/224/104
f 225/179/105 224/230/105 240/230/105 241/179/105
f 224/230/106 223/186/106 239/186/106 240/230/106
f 223/186/107 222/166/107 238/166/107 239/186/107
f 222/166/108 221/155/108 237/155/108 238/166/108
f 164/142/109 204/141/109 228/141/109 170/142/109
f 204/141/110 203/173/110 227/173/110 228/141/110
f 203/173/111 202/224/111 226/224/111 227/173/111
f 202/224/112 201/179/112 225/179/112 226/224/112
f 201/179/113 200/230/113 224/230/113 225/179/113
f 200/230/114 199/186/114 223/186/114 224/230/114
f 199/186/115 198/166/115 222/166/115 223/186/115
f 198/166/116 197/155/116 221/155/116 222/166/116
f 166/148/117 220/147/117 236/147/117 172/148/117
f 220/147/118 219/191/118 235/191/118 236/147/118
f 219/191/119 218/184/119 234/184/119 235/191/119
f 218/184/120 217/200/120 233/200/120 234/184/120
f 217/200/121 216/178/121 232/178/121 233/200/121
f 216/178/122 215/197/122 231/197/122 232/178/122
f 215/197/123 214/157/123 230/157/123 231/197/123
f 214/157/124 213/154/124 229/154/124 230/157/124
f 172/148/125 236/147/125 252/147/125 176/148/125
f 236/147/126 235/191/126 251/191/126 252/147/126
f 235/191/127 234/184/127 250/184/127 251/191/127
f 234/184/128 233/200/128 249/200/128 250/184/128
f 233/200/129 232/178/129 248/178/129 249/200/129
f 232/178/130 231/197/130 247/197/130 248/178/130
f 231/197/131 230/157/131 246/157/131 247/197/131
f 230/157/132 229/154/132 245/154/132 246/157/132
f 163/242/71 167/145/71 212/243/71 189/244/71
f 189/244/71 212/243/71 211/245/71 190/246/71
f 190/246/71 211/245/71 210/247/71 191/248/71
f 191/248/71 210/247/71 209/249/71 192/250/71
f 192/250/71 209/249/71 208/251/71 193/252/71
f 193/252/71 208/251/71 207/253/71 194/254/71
f 194/254/71 207/253/71 206/255/71 195/256/71
f 195/256/71 206/255/71 205/146/71 196/152/71
f 167/145/133 168/144/133 213/154/133 212/243/133
f 212/243/134 213/154/134 214/157/134 211/245/134
f 211/245/135 214/157/135 215/197/135 210/247/135
f 210/247/136 215/197/136 216/178/136 209/249/136
f 209/249/137 216/178/137 217/200/137 208/251/137
f 208/251/138 217/200/138 218/184/138 207/253/138
f 207/253/139 218/184/139 219/191/139 206/255/139
f 206/255/140 219/191/140 220/147/140 205/146/140
f 161/257/141 162/156/141 197/155/141 196/258/141
f 196/258/142 197/155/142 198/166/142 195/259/142
f 195/259/143 198/166/143 199/186/143 194/260/143
f 194/260/144 199/186/144 200/230/144 193/261/144
f 193/261/145 200/230/145 201/179/145 192/262/145
f 192/262/146 201/179/146 202/224/146 191/263/146
f 191/263/147 202/224/147 203/173/147 190/264/147
f 190/264/148 203/173/148 204/141/148 189/140/148
f 289/214/71 274/265/71 269/168/71 286/167/71
f 297/191/83 300/237/83 307/236/83 306/184/83
f 184/148/149 276/266/149 275/147/149 268/147/149
f 273/147/85 282/147/85 277/155/85 270/155/85
f 305/239/86 314/238/86 309/209/86 302/208/86
f 348/178/83 339/197/83 338/267/83 345/268/83
f 303/186/90 296/166/90 295/211/90 304/269/90
f 337/197/83 340/241/83 379/240/83 378/157/83
f 343/179/90 312/230/90 311/229/90 344/228/90
f 377/159/86 386/158/86 381/204/86 374/203/86
f 385/154/81 394/154/81 389/270/81 382/141/81
f 368/173/150 367/271/150 360/272/150 359/224/150
f 373/173/90 376/226/90 335/225/90 334/224/90
f 269/168/151 270/155/151 271/273/151 272/274/151
f 273/147/152 274/147/152 275/147/152 276/266/152
f 273/147/153 270/155/153 269/168/153 274/265/153
f 272/274/154 271/273/154 181/156/154
f 277/155/90 278/155/90 279/155/90 280/234/90
f 281/187/83 282/147/83 283/163/83 284/147/83
f 281/187/155 278/190/155 277/155/155 282/147/155
f 277/155/90 280/234/90 177/156/90
f 285/192/151 286/166/151 287/166/151 288/232/151
f 289/214/156 290/191/156 291/275/156 292/191/156
f 289/214/157 286/167/157 285/192/157 290/191/157
f 313/200/83 316/216/83 347/215/83 346/178/83
f 293/189/90 294/166/90 295/211/90 296/166/90
f 297/191/83 298/191/83 299/191/83 300/237/83
f 293/189/158 298/188/158 297/191/158 294/166/158
f 327/230/159 326/183/159 317/182/159 320/185/159
f 301/185/90 302/186/90 303/186/90 304/269/90
f 305/239/83 306/184/83 307/236/83 308/184/83
f 305/239/155 302/208/155 301/185/155 306/184/155
f 309/209/90 310/230/90 311/229/90 312/230/90
f 313/200/83 314/200/83 315/200/83 316/216/83
f 309/209/158 314/238/158 313/200/158 310/230/158
f 345/268/86 338/267/86 333/276/86 342/277/86
f 317/182/160 318/186/160 319/231/160 320/186/160
f 321/184/161 322/184/161 323/184/161 324/218/161
f 321/184/153 318/186/153 317/182/153 322/181/153
f 313/200/81 330/200/81 325/230/81 310/230/81
f 325/230/162 326/230/162 327/230/162 328/206/162
f 329/180/163 330/200/163 331/219/163 332/200/163
f 329/180/157 326/183/157 325/230/157 330/200/157
f 336/224/90 343/179/90 342/277/90 333/276/90
f 333/276/90 334/224/90 335/225/90 336/224/90
f 337/197/83 338/197/83 339/197/83 340/241/83
f 333/276/158 338/267/158 337/197/158 334/224/158
f 341/179/90 342/179/90 343/179/90 344/228/90
f 345/268/83 346/178/83 347/215/83 348/178/83
f 345/268/155 342/277/155 341/179/155 346/178/155
f 349/176/164 350/179/164 351/205/164 352/179/164
f 353/178/165 354/178/165 355/178/165 356/220/165
f 353/178/153 350/179/153 349/176/153 354/175/153
f 337/197/81 362/197/81 357/224/81 334/224/81
f 357/224/166 358/224/166 359/227/166 360/272/166
f 361/174/167 362/197/167 363/278/167 364/197/167
f 361/174/157 358/177/157 357/224/157 362/197/157
f 385/154/83 388/279/83 179/144/83
f 365/171/168 366/173/168 367/280/168 368/173/168
f 369/157/169 370/157/169 371/157/169 372/222/169
f 369/157/153 366/173/153 365/171/153 370/170/153
f 391/281/170 390/172/170 365/282/170 368/173/170
f 373/173/90 374/173/90 375/173/90 376/226/90
f 377/159/83 378/157/83 379/240/83 380/157/83
f 377/159/155 374/203/155 373/173/155 378/157/155
f 395/283/171 183/144/171 187/144/171
f 381/204/90 382/141/90 383/284/90 384/141/90
f 385/154/83 386/154/83 387/154/83 388/162/83
f 381/204/158 386/158/158 385/154/158 382/141/158
f 178/142/90 384/141/90 383/284/90
f 389/270/172 390/141/172 391/281/172 392/223/172
f 393/169/173 394/154/173 395/285/173 396/154/173
f 393/169/157 390/172/157 389/270/157 394/154/157
f 178/142/90 383/284/90 382/141/90
f 252/147/174 251/191/174 299/191/174 284/235/174
f 176/148/175 252/147/175 284/147/175 180/148/175
f 251/191/176 250/184/176 308/184/176 299/191/176
f 250/184/177 249/200/177 315/200/177 308/184/177
f 249/200/178 248/178/178 348/178/178 315/200/178
f 248/178/179 247/197/179 339/197/179 348/178/179
f 247/197/180 246/157/180 380/157/180 339/197/180
f 246/157/181 245/154/181 387/154/181 380/157/181
f 245/154/182 175/144/182 179/144/182 387/154/182
f 174/142/183 244/141/183 384/141/183 178/142/183
f 244/141/184 243/173/184 375/173/184 384/141/184
f 243/173/185 242/224/185 336/224/185 375/173/185
f 242/224/186 241/179/186 343/179/186 336/224/186
f 241/179/187 240/230/187 312/230/187 343/179/187
f 240/230/188 239/186/188 303/186/188 312/207/188
f 239/186/189 238/166/189 296/166/189 303/186/189
f 238/166/190 237/155/190 279/155/190 296/166/190
f 237/155/191 173/156/191 177/156/191 279/155/191
f 256/230/192 327/230/192 320/185/192 255/186/192
f 257/179/193 352/179/193 327/207/193 256/230/193
f 258/224/194 359/227/194 352/179/194 257/179/194
f 259/173/195 368/173/195 359/224/195 258/224/195
f 260/141/196 391/281/196 368/173/196 259/173/196
f 186/142/197 182/142/197 391/141/197 260/141/197
f 255/186/198 320/186/198 287/233/198 254/166/198
f 254/166/199 287/166/199 272/155/199 253/155/199
f 253/155/200 272/274/200 181/156/200 185/156/200
f 350/179/201 341/179/201 310/230/201 325/230/201
f 318/186/202 301/186/202 294/212/202 285/166/202
f 270/155/203 277/155/203 177/156/203 181/156/203
f 366/173/204 373/173/204 334/224/204 357/224/204
f 182/142/205 178/142/205 382/141/205 389/141/205
f 184/148/206 180/148/206 282/235/206 273/147/206
f 290/286/207 297/191/207 306/184/207 321/184/207
f 330/200/208 313/200/208 346/178/208 353/178/208
f 362/197/209 337/197/209 378/157/209 369/157/209
f 394/287/210 385/154/210 179/144/210 183/144/210
f 276/266/211 184/148/211 273/147/211
f 291/275/212 290/286/212 321/184/212 324/218/212
f 331/219/213 330/200/213 353/178/213 356/288/213
f 363/278/214 362/197/214 369/157/214 372/222/214
f 395/285/215 394/287/215 183/144/215
f 275/147/216 274/213/216 267/191/216 268/147/216
f 188/148/217 184/148/217 268/147/217
f 292/191/218 291/217/218 266/184/218 267/191/218
f 323/184/219 322/181/219 265/200/219 266/184/219
f 332/200/220 331/219/220 264/178/220 265/200/220
f 355/178/221 354/175/221 263/197/221 264/178/221
f 364/197/222 363/221/222 262/157/222 263/197/222
f 371/157/223 370/160/223 261/154/223 262/157/223
f 396/154/224 395/283/224 187/144/224 261/154/224
f 392/289/225 182/142/225 389/141/225
f 367/280/226 366/173/226 357/224/226 360/272/226
f 351/205/227 350/179/227 325/230/227 328/206/227
f 319/231/228 318/186/228 285/166/228 288/232/228
f 271/273/229 270/155/229 181/156/229
